<mxfile host="app.diagrams.net" modified="2021-12-06T09:43:26.621Z" agent="5.0 (Windows NT 10.0; Win64; x64) AppleWebKit/537.36 (KHTML, like Gecko) Chrome/96.0.4664.45 Safari/537.36" etag="01tXo69Hhpsv2dNMRC3G" version="15.9.1" type="github">
  <diagram id="ySfvJStup-6YXmM8jt1E" name="Page-1">
    <mxGraphModel dx="1021" dy="567" grid="0" gridSize="10" guides="1" tooltips="1" connect="1" arrows="1" fold="1" page="1" pageScale="1" pageWidth="3027" pageHeight="3169" math="0" shadow="0">
      <root>
        <mxCell id="0" />
        <mxCell id="1" parent="0" />
        <mxCell id="8F2AZgh4QrWMkYduSEjC-4" value="" style="rounded=0;whiteSpace=wrap;html=1;fontFamily=Comic Sans MS;fillColor=#f5f5f5;fontColor=#333333;strokeColor=#666666;" vertex="1" parent="1">
          <mxGeometry x="230" y="300" width="440" height="110" as="geometry" />
        </mxCell>
        <mxCell id="8F2AZgh4QrWMkYduSEjC-1" value="Traffic Realtime" style="rounded=1;whiteSpace=wrap;html=1;fontSize=18;fontFamily=Comic Sans MS;fontStyle=1;fillColor=#fad7ac;strokeColor=#b46504;" vertex="1" parent="1">
          <mxGeometry x="270" y="310" width="110" height="90" as="geometry" />
        </mxCell>
        <mxCell id="8F2AZgh4QrWMkYduSEjC-2" value="Configure information" style="rounded=1;whiteSpace=wrap;html=1;fontSize=18;fontFamily=Comic Sans MS;fontStyle=1;fillColor=#fad7ac;strokeColor=#b46504;" vertex="1" parent="1">
          <mxGeometry x="410" y="310" width="110" height="90" as="geometry" />
        </mxCell>
        <mxCell id="8F2AZgh4QrWMkYduSEjC-3" value="Alarm" style="rounded=1;whiteSpace=wrap;html=1;fontSize=18;fontStyle=1;fontFamily=Comic Sans MS;fillColor=#fad7ac;strokeColor=#b46504;" vertex="1" parent="1">
          <mxGeometry x="550" y="310" width="110" height="90" as="geometry" />
        </mxCell>
        <mxCell id="8F2AZgh4QrWMkYduSEjC-6" value="Database" style="text;html=1;strokeColor=none;fillColor=none;align=center;verticalAlign=middle;whiteSpace=wrap;rounded=0;fontFamily=Comic Sans MS;fontSize=20;fontStyle=1;rotation=90;" vertex="1" parent="1">
          <mxGeometry x="200" y="340" width="100" height="30" as="geometry" />
        </mxCell>
        <mxCell id="8F2AZgh4QrWMkYduSEjC-8" value="" style="shape=flexArrow;endArrow=classic;startArrow=classic;html=1;rounded=0;fontFamily=Comic Sans MS;fontSize=18;exitX=1;exitY=0.5;exitDx=0;exitDy=0;fillColor=#60a917;strokeColor=#2D7600;" edge="1" parent="1" source="8F2AZgh4QrWMkYduSEjC-25">
          <mxGeometry width="100" height="100" relative="1" as="geometry">
            <mxPoint x="310" y="599.9999999999999" as="sourcePoint" />
            <mxPoint x="392" y="768" as="targetPoint" />
            <Array as="points">
              <mxPoint x="440" y="768" />
            </Array>
          </mxGeometry>
        </mxCell>
        <mxCell id="8F2AZgh4QrWMkYduSEjC-10" value="" style="shape=flexArrow;endArrow=classic;startArrow=classic;html=1;rounded=0;fontFamily=Comic Sans MS;fontSize=18;entryX=0.546;entryY=0.999;entryDx=0;entryDy=0;fillColor=#60a917;strokeColor=#2D7600;entryPerimeter=0;" edge="1" parent="1" source="8F2AZgh4QrWMkYduSEjC-30" target="8F2AZgh4QrWMkYduSEjC-2">
          <mxGeometry width="100" height="100" relative="1" as="geometry">
            <mxPoint x="423" y="468" as="sourcePoint" />
            <mxPoint x="520" y="420" as="targetPoint" />
          </mxGeometry>
        </mxCell>
        <mxCell id="8F2AZgh4QrWMkYduSEjC-19" value="" style="shape=flexArrow;endArrow=classic;startArrow=classic;html=1;rounded=0;fontFamily=Comic Sans MS;fontSize=18;entryX=0.5;entryY=1;entryDx=0;entryDy=0;fillColor=#60a917;strokeColor=#2D7600;" edge="1" parent="1" target="8F2AZgh4QrWMkYduSEjC-1">
          <mxGeometry width="100" height="100" relative="1" as="geometry">
            <mxPoint x="405" y="517" as="sourcePoint" />
            <mxPoint x="310.49" y="410" as="targetPoint" />
          </mxGeometry>
        </mxCell>
        <mxCell id="8F2AZgh4QrWMkYduSEjC-20" value="" style="shape=flexArrow;endArrow=classic;startArrow=classic;html=1;rounded=0;fontFamily=Comic Sans MS;fontSize=18;entryX=0.5;entryY=1;entryDx=0;entryDy=0;fillColor=#60a917;strokeColor=#2D7600;exitX=0.943;exitY=-0.041;exitDx=0;exitDy=0;exitPerimeter=0;" edge="1" parent="1" source="8F2AZgh4QrWMkYduSEjC-30" target="8F2AZgh4QrWMkYduSEjC-3">
          <mxGeometry width="100" height="100" relative="1" as="geometry">
            <mxPoint x="526" y="506" as="sourcePoint" />
            <mxPoint x="550.49" y="410" as="targetPoint" />
          </mxGeometry>
        </mxCell>
        <mxCell id="8F2AZgh4QrWMkYduSEjC-22" value="Capture packet" style="rounded=1;whiteSpace=wrap;html=1;fontFamily=Comic Sans MS;fontSize=18;fillColor=#cdeb8b;strokeColor=#36393d;fontStyle=1" vertex="1" parent="1">
          <mxGeometry x="200.5" y="518" width="120" height="70" as="geometry" />
        </mxCell>
        <mxCell id="8F2AZgh4QrWMkYduSEjC-23" value="" style="shape=flexArrow;endArrow=classic;html=1;rounded=0;fontFamily=Comic Sans MS;fontSize=18;entryX=0;entryY=0.5;entryDx=0;entryDy=0;exitX=1;exitY=0.5;exitDx=0;exitDy=0;fillColor=#60a917;strokeColor=#2D7600;" edge="1" parent="1" source="8F2AZgh4QrWMkYduSEjC-22">
          <mxGeometry width="50" height="50" relative="1" as="geometry">
            <mxPoint x="320.5" y="568" as="sourcePoint" />
            <mxPoint x="394.5" y="553" as="targetPoint" />
          </mxGeometry>
        </mxCell>
        <mxCell id="8F2AZgh4QrWMkYduSEjC-24" value="MDM" style="rounded=1;whiteSpace=wrap;html=1;fontFamily=Comic Sans MS;fontSize=18;fontStyle=1;fillColor=#ffff88;strokeColor=#36393d;" vertex="1" parent="1">
          <mxGeometry x="390" y="728" width="159" height="80" as="geometry" />
        </mxCell>
        <mxCell id="8F2AZgh4QrWMkYduSEjC-25" value="Remote Control Client" style="rounded=1;whiteSpace=wrap;html=1;fontFamily=Comic Sans MS;fontSize=18;fontStyle=1;fillColor=#ffff88;strokeColor=#36393d;" vertex="1" parent="1">
          <mxGeometry x="119" y="728" width="200" height="80" as="geometry" />
        </mxCell>
        <mxCell id="8F2AZgh4QrWMkYduSEjC-26" value="API CMS" style="text;html=1;align=center;verticalAlign=middle;resizable=0;points=[];autosize=1;strokeColor=none;fillColor=none;fontSize=18;fontFamily=Comic Sans MS;rotation=90;fontStyle=1" vertex="1" parent="1">
          <mxGeometry x="459" y="647" width="90" height="26" as="geometry" />
        </mxCell>
        <mxCell id="8F2AZgh4QrWMkYduSEjC-27" value="Unix socket" style="text;html=1;align=center;verticalAlign=middle;resizable=0;points=[];autosize=1;strokeColor=none;fillColor=none;fontSize=18;fontFamily=Comic Sans MS;fontStyle=1;rotation=90;" vertex="1" parent="1">
          <mxGeometry x="449" y="449" width="112" height="26" as="geometry" />
        </mxCell>
        <mxCell id="8F2AZgh4QrWMkYduSEjC-30" value="DPI App" style="rounded=1;whiteSpace=wrap;html=1;fontFamily=Comic Sans MS;fontSize=18;fontStyle=1;fillColor=#dae8fc;strokeColor=#6c8ebf;gradientColor=#7ea6e0;" vertex="1" parent="1">
          <mxGeometry x="394.5" y="518" width="150" height="73" as="geometry" />
        </mxCell>
        <mxCell id="8F2AZgh4QrWMkYduSEjC-31" value="" style="shape=flexArrow;endArrow=classic;startArrow=classic;html=1;rounded=0;fontFamily=Comic Sans MS;fontSize=18;entryX=0.5;entryY=1;entryDx=0;entryDy=0;fillColor=#60a917;strokeColor=#2D7600;" edge="1" parent="1">
          <mxGeometry width="100" height="100" relative="1" as="geometry">
            <mxPoint x="472" y="725" as="sourcePoint" />
            <mxPoint x="472" y="591" as="targetPoint" />
          </mxGeometry>
        </mxCell>
      </root>
    </mxGraphModel>
  </diagram>
</mxfile>
